<svg width="107.000000" height="33.000000" viewBox="0 0 107 33" fill="none" xmlns="http://www.w3.org/2000/svg" xmlns:xlink="http://www.w3.org/1999/xlink">
	<desc>
			Created with Pixso.
	</desc>
	<defs/>
	<path id="Kreed" d="M95.37 25.67Q96.42 26.24 97.77 26.24Q99.26 26.24 100.19 25.67Q101.08 25.14 101.62 24.36Q101.65 24.31 101.68 24.27L101.8 24.27L102.24 26L104.23 26L104.23 7.75L101.68 7.75L101.68 12.6Q101.68 13.1 101.75 13.75Q101.83 14.41 101.87 14.72L101.73 14.72Q101.15 13.92 100.22 13.37Q99.28 12.82 97.82 12.82Q96.48 12.82 95.43 13.37Q94.65 13.79 94.03 14.52Q92.59 16.23 92.59 19.56Q92.59 22.88 94.01 24.56Q94.61 25.26 95.37 25.67ZM51.16 26L54.16 26L47.42 16.34L53.97 8.86L51 8.86L46.36 14.24Q45.74 14.96 45.11 15.69Q44.49 16.42 43.86 17.14L43.86 8.86L41.27 8.86L41.27 26L43.86 26L43.86 19.49L45.55 18.1L51.16 26ZM63.27 12.86Q62.88 12.82 62.54 12.82Q61.6 12.82 60.84 13.18Q60.51 13.34 60.21 13.57Q59.5 14.12 58.98 14.8Q58.78 15.07 58.6 15.36L58.5 15.36L58.17 13.06L56.16 13.06L56.16 26L58.7 26L58.7 19.18Q58.7 17.91 59.21 17.01Q59.59 16.35 60.14 15.92Q60.35 15.76 60.58 15.63Q61.08 15.35 61.61 15.23Q61.99 15.15 62.4 15.15Q63.07 15.15 63.69 15.31L63.95 12.94Q63.67 12.89 63.27 12.86ZM74.18 13.71Q72.87 12.82 70.96 12.82Q69.36 12.82 68.13 13.5Q68.01 13.56 67.9 13.63Q67.62 13.8 67.36 14.01Q66.44 14.76 65.86 15.94Q65.13 17.45 65.13 19.64Q65.13 21.79 65.93 23.27Q66.43 24.19 67.18 24.82Q67.63 25.21 68.17 25.49Q69.6 26.24 71.49 26.24Q72.86 26.24 73.84 26.02Q74.83 25.8 75.81 25.37L75.81 23.26Q74.78 23.72 73.81 23.94Q72.84 24.17 71.59 24.17Q70.11 24.17 69.17 23.46Q68.97 23.31 68.79 23.12Q67.8 22.06 67.74 20.07L76.43 20.07L76.43 18.68Q76.43 16.24 75.25 14.73Q75.12 14.55 74.97 14.39Q74.61 14 74.18 13.71ZM87.9 13.71Q86.6 12.82 84.69 12.82Q83.09 12.82 81.85 13.5Q81.74 13.56 81.63 13.63Q81.35 13.8 81.09 14.01Q80.16 14.76 79.59 15.94Q78.86 17.45 78.86 19.64Q78.86 21.79 79.66 23.27Q80.16 24.19 80.9 24.82Q81.35 25.21 81.89 25.49Q83.32 26.24 85.22 26.24Q86.59 26.24 87.57 26.02Q88.56 25.8 89.54 25.37L89.54 23.26Q88.51 23.72 87.54 23.94Q86.56 24.17 85.32 24.17Q83.84 24.17 82.9 23.46Q82.7 23.31 82.52 23.12Q81.53 22.06 81.47 20.07L90.16 20.07L90.16 18.68Q90.16 16.24 88.98 14.73Q88.85 14.55 88.7 14.39Q88.33 14 87.9 13.71ZM69.36 15.19Q70.04 14.79 70.96 14.79Q72.11 14.79 72.79 15.35Q72.99 15.52 73.16 15.74Q73.87 16.68 73.89 18.2L67.8 18.2Q67.94 16.56 68.76 15.68Q69.03 15.39 69.36 15.19ZM83.09 15.19Q83.77 14.79 84.69 14.79Q85.83 14.79 86.52 15.35Q86.72 15.52 86.89 15.74Q87.6 16.68 87.62 18.2L81.53 18.2Q81.67 16.56 82.49 15.68Q82.76 15.39 83.09 15.19ZM100.84 23.31Q100.05 24.15 98.37 24.15Q97.39 24.15 96.71 23.7Q96.29 23.42 95.99 22.97Q95.2 21.79 95.2 19.61Q95.2 17.43 95.99 16.17Q96.35 15.6 96.87 15.29Q97.49 14.91 98.35 14.91Q99.94 14.91 100.73 15.71Q100.91 15.89 101.05 16.12Q101.78 17.33 101.78 19.58L101.78 19.97Q101.78 22.06 101.01 23.11Q100.93 23.21 100.84 23.31Z" fill="#FFFFFF" fill-opacity="1.000000" fill-rule="evenodd"/>
	<rect id="Rectangle 63" y="1.000000" rx="6.000000" width="30.000000" height="30.000000" fill="#FFA182" fill-opacity="1.000000"/>
	<path id="K." d="M8.7 10.75L8.7 21.15C8.7 21.99 9.39 22.67 10.23 22.67C11.07 22.67 11.76 21.99 11.76 21.15L11.76 10.75C11.76 9.9 11.07 9.22 10.23 9.22C9.39 9.22 8.7 9.9 8.7 10.75ZM14.61 10.2L14.53 10.42C13.75 12.75 13.36 13.91 13.26 15.11C13.2 15.77 13.21 16.45 13.29 17.11C13.43 18.3 13.86 19.45 14.71 21.75C14.91 22.31 15.44 22.67 16.03 22.67C17 22.67 17.68 21.7 17.35 20.79L16.15 17.49C15.83 16.6 15.81 15.63 16.11 14.74L17.32 11.1C17.63 10.18 16.94 9.22 15.97 9.22C15.35 9.22 14.81 9.61 14.61 10.2ZM19.85 20.04C19.29 20.32 19.01 20.75 19.01 21.33C19.01 21.56 19.07 21.78 19.2 22C19.49 22.51 19.97 22.77 20.63 22.77C20.89 22.77 21.14 22.71 21.39 22.6C21.96 22.34 22.25 21.92 22.25 21.33C22.25 21.07 22.19 20.83 22.06 20.62C21.76 20.12 21.28 19.87 20.63 19.87C20.36 19.87 20.1 19.93 19.85 20.04Z" fill="#232522" fill-opacity="1.000000" fill-rule="evenodd"/>
</svg>
